# xmcd CD database file
#
# Track frame offsets:
#	150
#	23292
#	41275
#	53282
#	88375
#	106047
#	123292
#	137080
#	153350
#	176277
#	189342
#	210077
#	225955
#	244577
#	261517
#
# Disc length: 3903 seconds
#
# Revision: 0
# Processed by: cddbd v1.5.2PL0 Copyright (c) Steve Scherf et al.
# Submitted via: CDex 1.70beta2
#
DISCID=a50f3d0f
DTITLE=de Blues Broers - After all these years
DYEAR=1996
DGENRE=Blues
TTITLE0=Backstroke
TTITLE1=After all
TTITLE2=Phone booth
TTITLE3=Holderdebolder
TTITLE4=Bericht voor de macho
TTITLE5=i know what you're thinkin'
TTITLE6=It's my soul
TTITLE7=I want to shour about it
TTITLE8=Soms zit 't mee, soms zit 't tegen
TTITLE9=Zwiep, zwaai and zwier
TTITLE10=Drumkit
TTITLE11=Big boss man
TTITLE12=I wish you could see me now
TTITLE13=Someday, someway
TTITLE14=Am I loosing you
EXTD=YEAR: 1996
EXTT0=
EXTT1=
EXTT2=
EXTT3=
EXTT4=
EXTT5=
EXTT6=
EXTT7=
EXTT8=
EXTT9=
EXTT10=
EXTT11=
EXTT12=
EXTT13=
EXTT14=
PLAYORDER=
